<svg width="996" height="866" viewBox="0 0 996 866" fill="none" xmlns="http://www.w3.org/2000/svg">
<path d="M395.475 221.5C467.036 164.848 523.475 55.1667 547.475 9H995.976V618.5C987.642 597.5 957.975 514.2 923.975 475C881.475 426 811.975 495 713.475 526.5C614.975 558 462.475 784 374.975 833.5C287.475 883 67.9755 883 14.4755 777.5C-22.7173 704.157 14.4755 562.5 94.9755 475C155.097 409.65 287.475 307 395.475 221.5Z" fill="#FB8628"/>
<path d="M327 356.5C399.541 297.201 542 161.5 587 0.5H999V560.5C998.333 550 990.7 511.1 965.5 439.5C934 350 835.5 415 725.5 403.5C615.5 392 479 594.5 445.5 632.5C412 670.5 183.5 729 172 610C160.5 491 264 408 327 356.5Z" fill="#FD7B12"/>
</svg>
